<svg width="320" height="140" xmlns="http://www.w3.org/2000/svg">
  <rect x="20" y="20" width="280" height="100" rx="16" fill="#F1F5F9" stroke="#0F172A" stroke-width="2" />
  <g font-family="Arial" font-size="12" fill="#0F172A">
    <rect x="40" y="60" width="35" height="30" fill="#fff" stroke="#0F172A" stroke-width="2" />
    <text x="57" y="80" text-anchor="middle">1</text>
    <rect x="80" y="60" width="35" height="30" fill="#fff" stroke="#0F172A" stroke-width="2" />
    <text x="97" y="80" text-anchor="middle">3</text>
    <rect x="120" y="60" width="35" height="30" fill="#fff" stroke="#0F172A" stroke-width="2" />
    <text x="137" y="80" text-anchor="middle">5</text>
    <rect x="160" y="60" width="35" height="30" fill="#fff" stroke="#0F172A" stroke-width="2" />
    <text x="177" y="80" text-anchor="middle">7</text>
    <rect x="200" y="60" width="35" height="30" fill="#fff" stroke="#0F172A" stroke-width="2" />
    <text x="217" y="80" text-anchor="middle">9</text>
    <rect x="240" y="60" width="35" height="30" fill="#fff" stroke="#0F172A" stroke-width="2" />
    <text x="257" y="80" text-anchor="middle">11</text>
    <line x1="120" y1="50" x2="120" y2="40" stroke="#0F172A" stroke-width="2" />
    <text x="120" y="35" text-anchor="middle">left</text>
    <line x1="200" y1="50" x2="200" y2="40" stroke="#0F172A" stroke-width="2" />
    <text x="200" y="35" text-anchor="middle">right</text>
    <line x1="160" y1="95" x2="160" y2="110" stroke="#0F172A" stroke-width="2" />
    <text x="160" y="125" text-anchor="middle">mid</text>
  </g>
</svg>
